<svg width="273" height="226" viewBox="0 0 273 226" fill="none" xmlns="http://www.w3.org/2000/svg">
<ellipse cx="136.5" cy="175.5" rx="136.5" ry="50.5" fill="url(#paint0_radial_5_60)" fill-opacity="0.5"/>
<path d="M145.611 163.263C141.535 165.604 139.182 166.446 135.195 166.905C131.889 167.096 130.084 166.857 127.043 165.084L70.8873 132.304C66.344 128.832 65.0888 126.207 65 120.467L65.4529 53.0855C65.8073 50.9742 65.427 49.8611 67.2644 48.0775C69.5636 45.2911 71.2409 43.6203 74.5103 41.7036L127.043 11.2C133.413 7.83715 136.855 8.4838 142.894 11.6553L196.332 42.1589C199.444 44.0974 200.784 45.4216 202.673 48.0775C204.972 50.7464 205.139 54.2793 204.937 59.4594V121.832C204.634 124.68 202.22 128.662 202.22 128.662C200.861 130.483 198.597 131.848 194.068 134.58C189.539 137.312 149.156 161.226 145.611 163.263Z" fill="url(#paint1_linear_5_60)"/>
<path d="M60.5 43.9601L124.5 81.4601M60.5 43.9601C63.0385 40.9 64.8903 39.065 68.5 36.9601L126.5 3.46006C133.533 -0.233153 137.332 0.477022 144 3.96006L203 37.4601C206.435 39.589 207.914 41.0432 210 43.9601M60.5 43.9601C58.4714 45.9189 58.8913 47.1414 58.5 49.4601L58 123.46C58.098 129.765 59.4838 132.648 64.5 136.46L126.5 172.46C129.857 174.408 131.85 174.67 135.5 174.46M124.5 81.4601C132.898 83.4587 137.605 83.5182 146 81.4601M124.5 81.4601C131.498 88.3944 133.763 92.7001 135.5 100.96M146 81.4601L210 43.9601M146 81.4601C139.803 87.7523 137.464 91.9835 135.5 100.96M210 43.9601C212.539 46.8912 212.723 50.7711 212.5 56.4601V124.96C212.166 128.087 209.5 132.46 209.5 132.46C208 134.46 205.5 135.96 200.5 138.96C195.5 141.96 150.914 168.223 147 170.46C142.5 173.031 139.902 173.957 135.5 174.46M135.5 174.46V100.96" stroke="#666676"/>
<defs>
<radialGradient id="paint0_radial_5_60" cx="0" cy="0" r="1" gradientUnits="userSpaceOnUse" gradientTransform="translate(136.5 175.5) rotate(90) scale(50.5 136.5)">
<stop stop-color="#E0755D"/>
<stop offset="1" stop-color="#3B3BD3" stop-opacity="0"/>
</radialGradient>
<linearGradient id="paint1_linear_5_60" x1="135" y1="167" x2="113.5" y2="20" gradientUnits="userSpaceOnUse">
<stop stop-color="#F6CD41"/>
<stop offset="0.526667" stop-color="#F38F1F"/>
<stop offset="1" stop-color="#BA381E"/>
</linearGradient>
</defs>
</svg>
