<svg width="368" height="231" viewBox="0 0 368 231" fill="none" xmlns="http://www.w3.org/2000/svg">
<path d="M366.472 105.596C366.313 109.716 366.472 118.431 366.472 124.136C366.472 129.841 362.827 132.218 360.767 133.169L285.656 176.527M366.472 105.596C366.051 102.412 364.855 100.893 361.718 98.465L346.981 89.9946M366.472 105.596C366.221 107.348 365.874 108.223 364.57 109.399C364.197 110.146 357.198 114.524 346.03 121.165M1.8457 105.12C1.85874 100.941 4.80688 99.1442 10.8782 96.088L45.5823 76.0943M1.8457 105.12V126.513C2.30484 129.6 3.71821 131.139 8.02581 133.644L20.3809 140.775M1.8457 105.12C1.95336 107.846 2.57011 108.787 4.22267 109.874L76.4828 151.866M20.3809 140.775L162.053 222.542C175.534 230.487 183.373 231.189 197.707 227.296L285.656 176.527M20.3809 140.775V130.316L76.4828 162.168V151.866M76.4828 151.866L105.006 135.546M76.4828 151.866L142.087 189.99M105.006 135.546L119.744 143.627M105.006 135.546L90.2692 126.513L110.236 114.628L79.9258 96.5633M45.5823 76.0943L65.5686 88.0063M45.5823 76.0943L112.137 37.7507M65.5686 88.0063L90.2692 73.7445M65.5686 88.0063L79.9258 96.5633M79.9258 96.5633L53.1886 112.727L35.599 102.268M142.087 189.99L165.381 203.527C177.066 209.239 183.823 210.153 196.281 206.854C205.965 201.404 217.352 194.978 229.559 188.068M142.087 189.99V199.248L170.611 215.887C180.478 219.994 186.44 220.276 197.707 217.788L229.559 199.248V188.068M142.087 189.99L170.611 173.492M229.559 188.068L212.103 177.855M229.559 188.068C270.092 165.124 319.673 136.839 346.03 121.165M170.611 173.492L187.725 163.594L212.103 177.855M170.611 173.492L143.513 157.414M212.103 177.855L234.789 164.544M234.789 164.544L212.103 151.233M234.789 164.544L245.723 158.364M278.525 80.4L250.477 97.0387L271.869 109.874M271.869 109.874L259.984 117.005M271.869 109.874L293.262 122.235L320.835 106.071M320.835 106.071L307.524 98.4649M320.835 106.071L346.981 89.9946M320.835 106.071L346.03 121.165M346.981 89.9946L264.122 42.3686M346.03 121.165V133.169L285.656 167.397V176.527M112.137 37.7507L136.382 52.7453M112.137 37.7507C131.061 26.8484 143.038 19.948 159.677 10.3624M151.119 61.8597L136.382 52.7453M136.382 52.7453L157.775 40.467M159.677 10.3624C162.952 8.47509 166.409 6.48372 170.135 4.33721C181.791 0.10385 188.235 0.512781 199.609 5.28799L264.122 42.3686M159.677 10.3624L183.446 24.3036M222.428 67.089L239.542 57.1057M239.542 57.1057L212.92 40.467M239.542 57.1057L264.122 42.3686" stroke="#8E8EAF" stroke-width="2"/>
</svg>
