<svg width="602" height="343" viewBox="0 0 602 343" fill="none" xmlns="http://www.w3.org/2000/svg">
<path d="M149.712 263.936L268.561 332.393C290.825 343.989 302.749 344.796 323.231 337.622L337.017 328.59M366.016 313.377L484.389 244.921M121.664 247.298L5.19425 179.792C3.52872 178.283 2.31121 176.949 1.71602 175.038C1.13357 172.658 0.617563 171.181 1.39118 168.382C2.54773 165.595 3.93403 164.224 6.62013 162.202L42.2738 141.285M69.3725 126.072L171.107 67.1237M198.679 51.4358L276.168 7.22428C295.475 -1.70885 306.302 -0.234125 325.609 7.22428L404.524 52.3866M433.523 69.0253L529.077 124.171M559.027 141.76L591.354 160.301C597.243 163.606 600.386 165.53 600.861 168.858C601.337 172.186 600.71 176.089 597.058 179.316L515.766 226.38" stroke="#666676"/>
<ellipse cx="499.127" cy="235.413" rx="9.50785" ry="9.50785" fill="url(#paint0_radial_9_157)" fill-opacity="0.5"/>
<path d="M509.085 235.413C509.085 240.913 504.627 245.371 499.127 245.371C493.627 245.371 489.168 240.913 489.168 235.413C489.168 229.913 493.627 225.454 499.127 225.454C504.627 225.454 509.085 229.913 509.085 235.413Z" stroke="#E1E1E8"/>
<circle cx="499.127" cy="235.413" r="7.60628" fill="url(#paint1_linear_9_157)"/>
<ellipse cx="543.814" cy="131.777" rx="9.50785" ry="9.50785" fill="url(#paint2_radial_9_157)" fill-opacity="0.5"/>
<path d="M553.773 131.777C553.773 137.277 549.314 141.736 543.814 141.736C538.314 141.736 533.855 137.277 533.855 131.777C533.855 126.277 538.314 121.818 543.814 121.818C549.314 121.818 553.773 126.277 553.773 131.777Z" stroke="#E1E1E8"/>
<circle cx="543.814" cy="131.777" r="7.60628" fill="url(#paint3_linear_9_157)"/>
<ellipse cx="134.976" cy="254.428" rx="9.50785" ry="9.50785" fill="url(#paint4_radial_9_157)" fill-opacity="0.5"/>
<path d="M144.935 254.428C144.935 259.928 140.476 264.387 134.976 264.387C129.476 264.387 125.018 259.928 125.018 254.428C125.018 248.928 129.476 244.47 134.976 244.47C140.476 244.47 144.935 248.928 144.935 254.428Z" stroke="#E1E1E8"/>
<circle cx="134.976" cy="254.428" r="7.60628" fill="url(#paint5_linear_9_157)"/>
<ellipse cx="184.417" cy="59.5174" rx="9.50785" ry="9.50785" fill="url(#paint6_radial_9_157)" fill-opacity="0.5"/>
<path d="M194.375 59.5175C194.375 65.0175 189.917 69.4761 184.417 69.4761C178.917 69.4761 174.458 65.0175 174.458 59.5175C174.458 54.0175 178.917 49.5588 184.417 49.5588C189.917 49.5588 194.375 54.0175 194.375 59.5175Z" stroke="#E1E1E8"/>
<circle cx="184.417" cy="59.5174" r="7.60628" fill="url(#paint7_linear_9_157)"/>
<ellipse cx="55.1099" cy="132.728" rx="9.50785" ry="9.50785" fill="url(#paint8_radial_9_157)" fill-opacity="0.5"/>
<path d="M65.0691 132.728C65.0691 138.228 60.6105 142.686 55.1105 142.686C49.6105 142.686 45.1519 138.228 45.1519 132.728C45.1519 127.228 49.6105 122.769 55.1105 122.769C60.6105 122.769 65.0691 127.228 65.0691 132.728Z" stroke="#E1E1E8"/>
<circle cx="55.1102" cy="132.728" r="7.60628" fill="url(#paint9_linear_9_157)"/>
<ellipse cx="419.261" cy="59.5174" rx="9.50785" ry="9.50785" fill="url(#paint10_radial_9_157)" fill-opacity="0.5"/>
<path d="M429.22 59.5175C429.22 65.0175 424.761 69.4761 419.261 69.4761C413.761 69.4761 409.303 65.0175 409.303 59.5175C409.303 54.0175 413.761 49.5588 419.261 49.5588C424.761 49.5588 429.22 54.0175 429.22 59.5175Z" stroke="#E1E1E8"/>
<circle cx="419.261" cy="59.5174" r="7.60628" fill="url(#paint11_linear_9_157)"/>
<ellipse cx="351.755" cy="320.983" rx="9.50785" ry="9.50785" fill="url(#paint12_radial_9_157)" fill-opacity="0.5"/>
<path d="M361.714 320.983C361.714 326.483 357.256 330.942 351.756 330.942C346.256 330.942 341.797 326.483 341.797 320.983C341.797 315.483 346.256 311.025 351.756 311.025C357.256 311.025 361.714 315.483 361.714 320.983Z" stroke="#E1E1E8"/>
<circle cx="351.755" cy="320.983" r="7.60628" fill="url(#paint13_linear_9_157)"/>
<defs>
<radialGradient id="paint0_radial_9_157" cx="0" cy="0" r="1" gradientUnits="userSpaceOnUse" gradientTransform="translate(499.127 235.413) rotate(90) scale(9.50785 6.70956)">
<stop stop-color="#3B3BD3" stop-opacity="0"/>
<stop offset="1" stop-color="#E0755D"/>
</radialGradient>
<linearGradient id="paint1_linear_9_157" x1="499.127" y1="227.806" x2="499.127" y2="243.019" gradientUnits="userSpaceOnUse">
<stop stop-color="#E5791F"/>
<stop offset="1" stop-color="#BD3E1E"/>
</linearGradient>
<radialGradient id="paint2_radial_9_157" cx="0" cy="0" r="1" gradientUnits="userSpaceOnUse" gradientTransform="translate(543.814 131.777) rotate(90) scale(9.50785 6.70956)">
<stop stop-color="#3B3BD3" stop-opacity="0"/>
<stop offset="1" stop-color="#E0755D"/>
</radialGradient>
<linearGradient id="paint3_linear_9_157" x1="543.814" y1="124.171" x2="543.814" y2="139.383" gradientUnits="userSpaceOnUse">
<stop stop-color="#E5791F"/>
<stop offset="1" stop-color="#BD3E1E"/>
</linearGradient>
<radialGradient id="paint4_radial_9_157" cx="0" cy="0" r="1" gradientUnits="userSpaceOnUse" gradientTransform="translate(134.976 254.428) rotate(90) scale(9.50785 6.70956)">
<stop stop-color="#3B3BD3" stop-opacity="0"/>
<stop offset="1" stop-color="#E0755D"/>
</radialGradient>
<linearGradient id="paint5_linear_9_157" x1="134.976" y1="246.822" x2="134.976" y2="262.035" gradientUnits="userSpaceOnUse">
<stop stop-color="#E5791F"/>
<stop offset="1" stop-color="#BD3E1E"/>
</linearGradient>
<radialGradient id="paint6_radial_9_157" cx="0" cy="0" r="1" gradientUnits="userSpaceOnUse" gradientTransform="translate(184.417 59.5174) rotate(90) scale(9.50785 6.70956)">
<stop stop-color="#3B3BD3" stop-opacity="0"/>
<stop offset="1" stop-color="#E0755D"/>
</radialGradient>
<linearGradient id="paint7_linear_9_157" x1="184.417" y1="51.9111" x2="184.417" y2="67.1237" gradientUnits="userSpaceOnUse">
<stop stop-color="#E5791F"/>
<stop offset="1" stop-color="#BD3E1E"/>
</linearGradient>
<radialGradient id="paint8_radial_9_157" cx="0" cy="0" r="1" gradientUnits="userSpaceOnUse" gradientTransform="translate(55.1099 132.728) rotate(90) scale(9.50785 6.70956)">
<stop stop-color="#3B3BD3" stop-opacity="0"/>
<stop offset="1" stop-color="#E0755D"/>
</radialGradient>
<linearGradient id="paint9_linear_9_157" x1="55.1102" y1="125.122" x2="55.1102" y2="140.334" gradientUnits="userSpaceOnUse">
<stop stop-color="#E5791F"/>
<stop offset="1" stop-color="#F2C03B"/>
</linearGradient>
<radialGradient id="paint10_radial_9_157" cx="0" cy="0" r="1" gradientUnits="userSpaceOnUse" gradientTransform="translate(419.261 59.5174) rotate(90) scale(9.50785 6.70956)">
<stop stop-color="#3B3BD3" stop-opacity="0"/>
<stop offset="1" stop-color="#E0755D"/>
</radialGradient>
<linearGradient id="paint11_linear_9_157" x1="419.261" y1="51.9111" x2="419.261" y2="67.1237" gradientUnits="userSpaceOnUse">
<stop stop-color="#E5791F"/>
<stop offset="1" stop-color="#F2C03B"/>
</linearGradient>
<radialGradient id="paint12_radial_9_157" cx="0" cy="0" r="1" gradientUnits="userSpaceOnUse" gradientTransform="translate(351.755 320.983) rotate(90) scale(9.50785 6.70956)">
<stop stop-color="#3B3BD3" stop-opacity="0"/>
<stop offset="1" stop-color="#E0755D"/>
</radialGradient>
<linearGradient id="paint13_linear_9_157" x1="351.755" y1="313.377" x2="351.755" y2="328.59" gradientUnits="userSpaceOnUse">
<stop stop-color="#E5791F"/>
<stop offset="1" stop-color="#F2C03B"/>
</linearGradient>
</defs>
</svg>
