<svg width="496" height="317" viewBox="0 0 496 317" fill="none" xmlns="http://www.w3.org/2000/svg">
<path d="M52 172L107.333 204M135.5 220L163 204M135.5 220L107.333 204M135.5 220V252M163 204C162.188 202.812 161.174 202.158 159 201L139 189.5C136.075 187.907 134.426 188.014 131.5 189.5L107.333 204M163 204C163.899 205.496 163.971 206.767 164 209V233.5C163.85 235.367 163.388 236.279 161.5 237.5L139 251C137.791 251.699 137.112 252.08 135.5 252M107.333 204L107.5 235.5L132.5 251C133.653 251.802 134.322 251.873 135.5 252" stroke="#666676"/>
<path d="M150 228L219.333 268M247.5 284L275 268M247.5 284L219.333 268M247.5 284V316M275 268C274.188 266.812 273.174 266.158 271 265L251 253.5C248.075 251.907 246.426 252.014 243.5 253.5L219.333 268M275 268C275.899 269.496 275.971 270.767 276 273V297.5C275.85 299.367 275.388 300.279 273.5 301.5L251 315C249.791 315.699 249.112 316.08 247.5 316M219.333 268L219.5 299.5L244.5 315C245.653 315.802 246.322 315.873 247.5 316" stroke="#666676"/>
<path d="M355.5 223L383 207M355.5 223L327.333 207M355.5 223V255M383 207C382.188 205.812 381.174 205.158 379 204L359 192.5C356.075 190.907 354.426 191.014 351.5 192.5L327.333 207M383 207C383.899 208.496 383.972 209.767 384 212V236.5C383.85 238.367 383.388 239.279 381.5 240.5L359 254C357.791 254.699 357.112 255.08 355.5 255M383 207L443.5 172M327.333 207L327.5 238.5M327.5 238.5L352.5 254C353.654 254.802 354.322 254.873 355.5 255M327.5 238.5L274.5 268" stroke="#666676"/>
<path d="M36.7896 187.108C35.3339 187.944 34.4937 188.245 33.0696 188.409C31.8888 188.477 31.2442 188.392 30.1583 187.758L10.1026 176.051C8.47999 174.812 8.0317 173.874 8 171.824L8.16174 147.759C8.28831 147.005 8.15248 146.608 8.8087 145.971C9.62985 144.975 10.2289 144.379 11.3965 143.694L30.1583 132.8C32.4333 131.599 33.6623 131.83 35.8192 132.963L54.9044 143.857C56.0156 144.549 56.4941 145.022 57.1688 145.971C57.9901 146.924 58.0496 148.185 57.9775 150.036V172.312C57.8694 173.329 57.007 174.751 57.007 174.751C56.5218 175.401 55.7131 175.889 54.0957 176.864C52.4783 177.84 38.0558 186.381 36.7896 187.108Z" fill="url(#paint0_linear_5_70)"/>
<path d="M272 51L327.333 83M355.5 99L383 83M355.5 99L327.333 83M355.5 99V131M383 83C382.188 81.8115 381.174 81.1581 379 80L359 68.5C356.075 66.9068 354.426 67.014 351.5 68.5L327.333 83M383 83C383.899 84.4964 383.971 85.7672 384 88V112.5C383.85 114.367 383.388 115.279 381.5 116.5L359 130C357.791 130.699 357.112 131.08 355.5 131M327.333 83L327.5 114.5L352.5 130C353.653 130.802 354.322 130.873 355.5 131" stroke="#666676"/>
<path d="M252.214 64.0059C250.787 64.8254 249.964 65.1203 248.568 65.2807C247.411 65.3478 246.779 65.264 245.715 64.6433L226.061 53.1703C224.47 51.9554 224.031 51.0366 224 49.0273L224.159 25.4439C224.283 24.705 224.149 24.3154 224.793 23.6911C225.597 22.7159 226.184 22.1311 227.329 21.4603L245.715 10.784C247.945 9.60702 249.149 9.83334 251.263 10.9434L269.966 21.6196C271.055 22.2981 271.524 22.7616 272.185 23.6911C272.99 24.6252 273.049 25.8617 272.978 27.6748V49.5053C272.872 50.502 272.027 51.8955 272.027 51.8955C271.551 52.5329 270.759 53.011 269.174 53.9671C267.589 54.9231 253.455 63.2931 252.214 64.0059Z" fill="url(#paint1_linear_5_70)"/>
<path d="M466.214 188.006C464.787 188.825 463.964 189.12 462.568 189.281C461.411 189.348 460.779 189.264 459.715 188.643L440.061 177.17C438.47 175.955 438.031 175.037 438 173.027L438.159 149.444C438.283 148.705 438.149 148.315 438.793 147.691C439.597 146.716 440.184 146.131 441.329 145.46L459.715 134.784C461.945 133.607 463.149 133.833 465.263 134.943L483.966 145.62C485.055 146.298 485.524 146.762 486.185 147.691C486.99 148.625 487.049 149.862 486.978 151.675V173.505C486.872 174.502 486.027 175.896 486.027 175.896C485.551 176.533 484.759 177.011 483.174 177.967C481.589 178.923 467.455 187.293 466.214 188.006Z" fill="url(#paint2_linear_5_70)"/>
<path d="M370 108L431.756 143.595M459 159L431.756 143.595M459 159C461.583 161.477 462.42 163.286 463.192 167M459 159C462.093 159.543 463.71 159.489 466.5 159M493.884 143.595C492.977 142.273 491.846 141.547 489.42 140.258L467.098 127.466C463.834 125.694 461.993 125.813 458.728 127.466L431.756 143.595M493.884 143.595C494.887 145.26 494.968 146.673 495 149.157V176.41C494.832 178.487 494.316 179.501 492.21 180.859L467.098 195.876C465.749 196.653 464.991 197.077 463.192 196.988M493.884 143.595L466.5 159M431.756 143.595L431.942 178.635L459.844 195.876C461.131 196.768 461.877 196.847 463.192 196.988M463.192 196.988V167M463.192 167C463.649 163.456 464.316 161.675 466.5 159" stroke="#666676"/>
<path d="M2.01896 143.51L28.1043 158.794M2.01896 143.51C3.05362 142.263 3.80839 141.515 5.27962 140.657L28.9194 127.003C31.786 125.497 33.3345 125.787 36.0521 127.206L60.0995 140.861C61.4996 141.728 62.1026 142.321 62.9526 143.51M2.01896 143.51C1.19213 144.308 1.36327 144.806 1.20379 145.752L1 175.913C1.03994 178.482 1.60479 179.657 3.64929 181.211L28.9194 195.884C30.2877 196.678 31.0999 196.785 32.5877 196.699M28.1043 158.794C31.527 159.609 33.4457 159.633 36.8673 158.794M28.1043 158.794C30.9565 161.621 31.8798 163.375 32.5877 166.742M36.8673 158.794L62.9526 143.51M36.8673 158.794C34.3415 161.359 33.3882 163.083 32.5877 166.742M62.9526 143.51C63.9875 144.704 64.0625 146.286 63.9716 148.605V176.524C63.8354 177.799 62.7488 179.581 62.7488 179.581C62.1375 180.396 61.1185 181.007 59.0806 182.23C57.0427 183.453 38.8703 194.157 37.2749 195.069C35.4408 196.117 34.382 196.494 32.5877 196.699M62.9526 143.51L113.5 114.867M32.5877 196.699V166.742M126.5 107.5L113.5 114.867M113.5 114.867C113.113 114.537 112.993 113.76 113 111V86C112.857 84.0348 113.409 83.3308 113.5 83M113.5 114.867L137 129.5C138.95 130.656 139.817 130.972 141 131M141 99L113.5 83M141 99L169 83M141 99V131M113.5 83C114.172 82.1286 114.597 81.6897 115.5 81L138 68C140.37 66.6709 141.64 66.6973 144 68L166.5 81C167.54 81.698 168.115 82.1334 169 83M169 83C169.397 83.8519 169.518 84.3901 169.5 85.5V111C169.437 113.193 169.408 114.432 167.5 116.5L145 129.5C143.142 130.515 142.242 130.861 141 131M169 83L217 55.5M217 55.5V22.5C216.94 19.6096 216.951 19.0605 217 19M217 55.5L244.5 72C246.046 72.8598 246.764 72.9513 248 73M217 55.5L224.5 51M217 19L243.5 35M217 19C217.797 18.3806 218.273 18.1102 219 17.8L244.5 2.49999C247.057 1.0537 248.58 1.08571 251.5 2.49999C251.5 2.49999 277 17 277.5 17.5C278 18 278.5 18.5 279 19M243.5 35C246.064 37.0437 246.997 38.4774 248 41.5M243.5 35C246.992 35.5992 248.828 35.6215 252 35M248 41.5C249.506 38.2297 250.366 36.7966 252 35M248 41.5V73M252 35L279 19M279 19C279.083 19.5825 279.54 20.0777 279.5 21.5V52C279.602 54.1661 279.312 55.2955 277.5 57L251.5 72C250.206 72.7493 249.453 73.0227 248 73" stroke="#666676"/>
<defs>
<linearGradient id="paint0_linear_5_70" x1="20.1429" y1="182.371" x2="46.75" y2="139.871" gradientUnits="userSpaceOnUse">
<stop stop-color="#BD3D1E"/>
<stop offset="1" stop-color="#EF8820"/>
</linearGradient>
<linearGradient id="paint1_linear_5_70" x1="235.9" y1="59.364" x2="261.975" y2="17.714" gradientUnits="userSpaceOnUse">
<stop stop-color="#BD3D1E"/>
<stop offset="1" stop-color="#EF8820"/>
</linearGradient>
<linearGradient id="paint2_linear_5_70" x1="446.5" y1="178" x2="475.975" y2="141.714" gradientUnits="userSpaceOnUse">
<stop stop-color="#B9391E"/>
<stop offset="1" stop-color="#E97F1F"/>
</linearGradient>
</defs>
</svg>
