<svg width="190" height="226" viewBox="0 0 190 226" fill="none" xmlns="http://www.w3.org/2000/svg">
<path d="M41.6621 31.1656V70.97C52.4358 68.4164 59.622 68.8844 71.9135 68.8471C71.9135 68.8471 70.8521 64.6014 71.9135 46.2913C72.975 27.9812 80.9359 26.1184 84.1202 24.7968C87.5699 23.3652 107.565 24.0474 111.187 24.7968C114.809 25.5463 124.19 33.8192 124.19 46.2913V68.8471H156.034V31.1656C156.034 17.8973 141.173 0.383403 126.313 0.383403C102.047 0.203716 72.3746 -0.72274 65.5448 1.17953C58.715 3.08181 41.6621 10.998 41.6621 31.1656Z" fill="#F6CD41"/>
<path d="M152.849 68.3162H72.1785H40.0696C20.1674 68.3162 0.265137 81.319 0.265137 111.57V190.118C0.265137 208.163 17.2484 225.677 39.2735 225.411C61.2987 225.146 137.723 225.411 154.176 225.411C170.628 225.411 190 209.755 190 181.626V107.855C190 89.5452 173.282 68.3162 152.849 68.3162Z" fill="#B9391E"/>
<path d="M46.7037 27.7158C46.4385 36.4728 46.7039 70.1738 46.7039 70.1738C43.6147 70.6047 44.1415 70.4048 41.662 71.2353C41.662 71.2353 40.8053 40.6667 42.1925 26.6543C43.5797 12.6418 54.93 1.17939 72.1786 0.383301C54.0807 5.57168 46.9688 18.9588 46.7037 27.7158Z" fill="#F28E1E"/>
<path d="M155.603 68.051H80.9124H51.1835C32.7566 68.051 14.3296 81.0536 14.3296 111.304V189.85C14.3296 207.895 30.0539 225.408 50.4464 225.143C70.8389 224.878 141.598 225.143 156.831 225.143C172.064 225.143 190 209.487 190 181.359V107.589C190 89.2797 174.521 68.051 155.603 68.051Z" fill="#E96010"/>
<path d="M139.052 82.9114H84.9181C84.9181 82.9114 91.8157 82.9114 63.4219 82.9114C35.028 82.9114 30.7822 103.72 30.7822 128.554V173.666C30.7822 191.976 46.6643 210.501 63.4219 210.283C80.1795 210.065 126.535 210.283 139.052 210.283C151.57 210.283 172.488 200.207 172.488 177.115V123.512C172.488 86.8918 154.598 82.9114 139.052 82.9114Z" fill="#F38F1F"/>
<path d="M79.6089 134.126C79.6089 143.945 82.7524 146.204 88.8966 152.702V178.707C88.8966 183.218 93.6731 190.383 102.43 189.853C111.187 189.322 114.902 183.484 114.902 178.707V152.702C121.692 147.677 124.19 142.618 124.19 134.126C124.19 125.635 116.494 111.571 102.43 111.836C88.3659 112.101 79.6089 124.308 79.6089 134.126Z" fill="#B8381D"/>
<path d="M79.6089 134.766C79.6089 146.973 87.3044 150.048 87.3044 151.11C87.3044 151.11 88.3659 172.64 88.3659 176.904C88.3659 181.167 91.2754 187.701 96.5922 187.199C101.909 186.698 105.283 181.418 105.283 176.904V152.323C105.283 149.252 114.372 148.673 114.372 134.766C114.372 120.858 105.283 112.101 96.5922 112.897C87.9016 113.693 79.6089 122.559 79.6089 134.766Z" fill="#F6CD41"/>
<path opacity="0.3" fill-rule="evenodd" clip-rule="evenodd" d="M37.5539 131.738C42.0211 131.738 45.6424 128.649 45.6424 124.839C45.6424 121.028 42.021 117.939 37.5538 117.939C37.5438 117.939 37.5338 117.939 37.5238 117.939H0V131.738H37.5539V131.738Z" fill="black"/>
<path opacity="0.3" fill-rule="evenodd" clip-rule="evenodd" d="M37.5539 140.23H0V154.029H37.5098C37.5245 154.029 37.5392 154.029 37.5538 154.029C42.021 154.029 45.6424 150.94 45.6424 147.129C45.6424 143.319 42.0211 140.23 37.5539 140.23V140.23Z" fill="black"/>
<path opacity="0.3" fill-rule="evenodd" clip-rule="evenodd" d="M37.5539 162.52H0V176.319H37.5366C37.5424 176.319 37.5481 176.319 37.5538 176.319C42.021 176.319 45.6424 173.23 45.6424 169.42C45.6424 165.609 42.0211 162.52 37.5539 162.52Z" fill="black"/>
<path opacity="0.3" fill-rule="evenodd" clip-rule="evenodd" d="M167.179 139.699C163.368 139.699 160.279 142.788 160.279 146.598C160.279 150.409 163.368 153.498 167.179 153.498C167.217 153.498 167.255 153.497 167.293 153.497V153.498H190V139.699H167.293V139.7C167.255 139.699 167.217 139.699 167.179 139.699Z" fill="black"/>
<path opacity="0.3" fill-rule="evenodd" clip-rule="evenodd" d="M167.293 133.33H190V119.531H167.293V119.532C167.255 119.532 167.217 119.531 167.179 119.531C163.368 119.531 160.279 122.62 160.279 126.431C160.279 130.241 163.368 133.33 167.179 133.33C167.217 133.33 167.255 133.33 167.293 133.329V133.33Z" fill="black"/>
<path opacity="0.3" fill-rule="evenodd" clip-rule="evenodd" d="M167.179 159.867C163.368 159.867 160.279 162.956 160.279 166.766C160.279 170.577 163.368 173.666 167.179 173.666C167.217 173.666 167.255 173.665 167.293 173.665V173.665H190V159.867H167.293V159.868C167.255 159.867 167.217 159.867 167.179 159.867Z" fill="black"/>
</svg>
