<svg width="497" height="313" viewBox="0 0 497 313" fill="none" xmlns="http://www.w3.org/2000/svg">
<path d="M473.41 93.4116C472.58 93.8883 472.101 94.0597 471.29 94.1531C470.617 94.1921 470.249 94.1433 469.63 93.7823L458.198 87.1093C457.274 86.4026 457.018 85.8682 457 84.6996L457.092 70.9827C457.164 70.5529 457.087 70.3263 457.461 69.9632C457.929 69.396 458.27 69.0558 458.936 68.6657L469.63 62.456C470.927 61.7714 471.628 61.9031 472.857 62.5487L483.736 68.7584C484.369 69.153 484.642 69.4225 485.026 69.9632C485.494 70.5065 485.528 71.2257 485.487 72.2802V84.9776C485.426 85.5573 484.934 86.3678 484.934 86.3678C484.657 86.7385 484.196 87.0166 483.275 87.5727C482.353 88.1288 474.132 92.997 473.41 93.4116Z" fill="url(#paint0_linear_9_91)"/>
<path d="M129.41 304.412C128.58 304.888 128.101 305.06 127.29 305.153C126.617 305.192 126.249 305.143 125.63 304.782L114.198 298.109C113.274 297.403 113.018 296.868 113 295.7L113.092 281.983C113.164 281.553 113.087 281.326 113.461 280.963C113.929 280.396 114.27 280.056 114.936 279.666L125.63 273.456C126.927 272.771 127.628 272.903 128.857 273.549L139.736 279.758C140.369 280.153 140.642 280.423 141.026 280.963C141.494 281.507 141.528 282.226 141.487 283.28V295.978C141.426 296.557 140.934 297.368 140.934 297.368C140.657 297.739 140.196 298.017 139.275 298.573C138.353 299.129 130.132 303.997 129.41 304.412Z" fill="url(#paint1_linear_9_91)"/>
<path d="M129.41 40.4116C128.58 40.8883 128.101 41.0597 127.29 41.1531C126.617 41.1921 126.249 41.1433 125.63 40.7823L114.198 34.1093C113.274 33.4026 113.018 32.8682 113 31.6996L113.092 17.9827C113.164 17.5529 113.087 17.3263 113.461 16.9632C113.929 16.396 114.27 16.0558 114.936 15.6657L125.63 9.45601C126.927 8.77143 127.628 8.90307 128.857 9.54869L139.736 15.7584C140.369 16.153 140.642 16.4225 141.026 16.9632C141.494 17.5065 141.528 18.2257 141.487 19.2802V31.9776C141.426 32.5573 140.934 33.3678 140.934 33.3678C140.657 33.7385 140.196 34.0166 139.275 34.5727C138.353 35.1288 130.132 39.997 129.41 40.4116Z" fill="url(#paint2_linear_9_91)"/>
<path d="M88.0002 187L19.5002 226.5M19.5002 226.5L1.50023 216.5M19.5002 226.5V247.841M1.50023 216.5C2.28298 215.618 2.72109 215.176 3.50023 214.5L17.5002 206C18.8061 205.491 19.5638 205.419 21.0002 206L38.0002 215.832V235C37.9778 236.761 37.7164 237.578 36.5002 238.5L21.0002 247.5C20.4396 247.754 20.1101 247.839 19.5002 247.841M1.50023 216.5C1.04713 217.201 0.958819 217.644 1.00023 218.5V235C0.977646 236.816 1.23392 237.631 2.50023 238.5L17.5002 247.5C18.2552 247.795 18.6966 247.848 19.5002 247.841" stroke="#666676"/>
<path d="M389.009 12.8321L370.509 23.5M389.009 12.8321L372.009 2.99998C370.573 2.41929 369.815 2.49142 368.509 2.99998L354.509 11.5C353.73 12.1757 353.292 12.6185 352.509 13.5M389.009 12.8321L389.009 32C388.987 33.7614 388.725 34.5778 387.509 35.5L372.009 44.5C371.449 44.7541 371.119 44.8385 370.509 44.8407M370.509 23.5L352.509 13.5M370.509 23.5V44.8407M352.509 13.5C352.056 14.2005 351.968 14.6438 352.009 15.5V32C351.987 33.8157 352.243 34.6313 353.509 35.5L360 39.3945M370.509 44.8407C369.705 44.8478 369.264 44.7951 368.509 44.5L360 39.3945M360 39.3945L311.5 68" stroke="#666676"/>
<path d="M46.009 69.8321L27.5091 80.5M46.009 69.8321L29.0091 60C27.5727 59.4193 26.815 59.4914 25.5091 60L11.5091 68.5C10.73 69.1757 10.2919 69.6185 9.50912 70.5M46.009 69.8321L46.0091 89C45.9867 90.7614 45.7253 91.5778 44.5091 92.5L37.5 96.5698M27.5091 80.5L9.50912 70.5M27.5091 80.5V101.841M9.50912 70.5C9.05602 71.2005 8.96771 71.6438 9.00912 72.5V89C8.98654 90.8157 9.24281 91.6313 10.5091 92.5L25.5091 101.5C26.2641 101.795 26.7055 101.848 27.5091 101.841M27.5091 101.841C28.119 101.839 28.4485 101.754 29.0091 101.5L36.7591 97L37.5 96.5698M37.5 96.5698L87 125" stroke="#666676"/>
<path d="M148.228 12.5235L128.831 1.46012C127.192 0.806718 126.327 0.887875 124.837 1.46012L108.863 11.0246C107.974 11.7849 107.474 12.2831 106.581 13.275M148.228 12.5235L148.228 34.0917C148.203 36.0737 147.905 36.9923 146.517 38.03L138.519 42.6095M148.228 12.5235L129.805 23M106.581 13.275C106.064 14.0632 105.963 14.562 106.01 15.5255V34.0917C105.985 36.1349 106.277 37.0526 107.722 38.03L124.837 48.1571C125.699 48.4892 126.202 48.5485 127.119 48.5405M106.581 13.275L124.5 23M127.119 48.5405C127.815 48.538 128.191 48.443 128.831 48.1571L137.674 43.0936L138.519 42.6095M127.119 48.5405V27M138.519 42.6095L185 69M124.5 23C126.674 23.6019 127.819 23.5383 129.805 23M124.5 23C125.885 24.395 126.529 25.2368 127.119 27M129.805 23C128.355 24.4515 127.768 25.3235 127.119 27" stroke="#666676"/>
<path d="M492.228 65.5235L472.831 54.4601C471.192 53.8067 470.327 53.8879 468.837 54.4601L452.863 64.0246C451.974 64.7849 451.474 65.2831 450.581 66.275M492.228 65.5235L492.228 87.0917C492.203 89.0737 491.905 89.9923 490.517 91.03L482.519 95.6095L481.674 96.0936L472.831 101.157C472.191 101.443 471.815 101.538 471.119 101.54M492.228 65.5235L474.5 75.6049M450.581 66.275C450.064 67.0632 449.963 67.562 450.01 68.5255V87.0917C449.985 89.1349 450.277 90.0526 451.722 91.03L458.431 95M450.581 66.275L468 75.8183M471.119 101.54C470.202 101.549 469.699 101.489 468.837 101.157L458.431 95M471.119 101.54V80M458.431 95L408 124M468 75.8183C470.523 76.6082 471.952 76.3628 474.5 75.6049M468 75.8183C470.007 77.3987 470.662 78.3166 471.119 80M474.5 75.6049C472.52 77.1232 471.659 78.052 471.119 80" stroke="#666676"/>
<path d="M195.5 249L129.5 287M106.573 276.971C107.455 275.986 107.949 275.491 108.826 274.736L124.595 265.236C126.065 264.667 126.919 264.587 128.537 265.236L147.84 276.5L147.684 297.648C147.659 299.616 147.364 300.529 145.995 301.56L128.537 311.619C127.905 311.903 127.534 311.997 126.847 311.999M106.573 276.971C106.063 277.754 105.964 278.249 106.01 279.206V297.648C105.985 299.677 106.273 300.589 107.7 301.56L124.595 311.619C125.445 311.948 125.942 312.007 126.847 311.999M106.573 276.971L124.5 287M126.847 311.999V291.5M129.5 287C128.203 288.537 127.672 289.521 126.847 291.5M129.5 287C127.621 287.527 126.4 287.534 124.5 287M126.847 291.5C126.31 289.687 125.735 288.71 124.5 287" stroke="#414065"/>
<path d="M368.509 286.5L350.509 276.5M368.509 286.5V307.841M368.509 286.5L387.009 275.832M350.509 276.5C351.292 275.618 351.73 275.176 352.509 274.5L366.509 266C367.815 265.491 368.573 265.419 370.009 266L387.009 275.832M350.509 276.5C350.056 277.2 349.968 277.644 350.009 278.5V295C349.987 296.816 350.243 297.631 351.509 298.5L366.509 307.5C367.264 307.795 367.705 307.848 368.509 307.841M350.509 276.5L301.5 249M387.009 275.832V295C386.987 296.761 386.725 297.578 385.509 298.5L370.009 307.5C369.449 307.754 369.119 307.839 368.509 307.841" stroke="#666676"/>
<path d="M477.509 226L459.509 216M477.509 226V247.341M477.509 226L496.009 215.332M459.509 216C460.292 215.118 460.73 214.676 461.509 214L475.509 205.5C476.815 204.991 477.573 204.919 479.009 205.5L496.009 215.332M459.509 216C459.056 216.7 458.968 217.144 459.009 218V234.5C458.987 236.316 459.243 237.131 460.509 238L475.509 247C476.264 247.295 476.705 247.348 477.509 247.341M459.509 216L409.5 187.5M496.009 215.332V234.5C495.987 236.261 495.725 237.078 494.509 238L479.009 247C478.449 247.254 478.119 247.339 477.509 247.341" stroke="#666676"/>
<defs>
<linearGradient id="paint0_linear_9_91" x1="461.944" y1="87.5918" x2="479.087" y2="66.4867" gradientUnits="userSpaceOnUse">
<stop stop-color="#F4CD41"/>
<stop offset="1" stop-color="#E97F1F"/>
</linearGradient>
<linearGradient id="paint1_linear_9_91" x1="117.944" y1="298.592" x2="135.087" y2="277.487" gradientUnits="userSpaceOnUse">
<stop stop-color="#F4CD41"/>
<stop offset="1" stop-color="#E97F1F"/>
</linearGradient>
<linearGradient id="paint2_linear_9_91" x1="117.944" y1="34.5918" x2="135.087" y2="13.4867" gradientUnits="userSpaceOnUse">
<stop stop-color="#F4CD41"/>
<stop offset="1" stop-color="#E97F1F"/>
</linearGradient>
</defs>
</svg>
