<svg width="329" height="336" viewBox="0 0 329 336" fill="none" xmlns="http://www.w3.org/2000/svg">
<path fill-rule="evenodd" clip-rule="evenodd" d="M74.5875 93.0827C74.7151 163.969 94.1661 197.879 137.815 255.667C157.364 276.241 169.703 277.673 191.058 255.667C233.928 213.843 250.699 182.775 255.236 93.5582C255.23 93.1171 255.225 92.6807 255.22 92.249C255.067 79.2166 254.964 70.4934 241.823 67.4943C241.58 67.4389 241.321 67.4044 241.072 67.3903C219.796 66.1791 207.541 62.982 185.354 52.199C169.274 42.4397 160.367 40.6588 145.286 51.943C145.063 52.11 144.817 52.2649 144.568 52.3912C126.062 61.7978 114.607 64.6945 93.7498 67.3333C93.3409 67.385 92.9285 67.4915 92.5473 67.6482C79.2405 73.1181 74.526 78.2647 74.5875 93.0827ZM159.928 98.3121C157.167 98.3121 154.928 100.551 154.928 103.312V129.917C154.928 132.679 152.69 134.917 149.928 134.917H126.175C123.414 134.917 121.175 137.156 121.175 139.917V150.835C121.175 153.596 123.414 155.835 126.175 155.835H149.928C152.69 155.835 154.928 158.073 154.928 160.835V185.538C154.928 188.3 157.167 190.538 159.928 190.538H170.846C173.607 190.538 175.846 188.3 175.846 185.538V160.835C175.846 158.073 178.084 155.835 180.846 155.835H204.123C206.884 155.835 209.123 153.596 209.123 150.835V139.917C209.123 137.156 206.884 134.917 204.123 134.917H180.846C178.084 134.917 175.846 132.679 175.846 129.917V103.312C175.846 100.551 173.607 98.3121 170.846 98.3121H159.928Z" fill="url(#paint0_linear_9_191)"/>
<path d="M64.2028 87.3668L64.2028 87.3632C64.1689 79.2957 65.4573 74.1554 68.3496 70.3012C71.2682 66.412 75.9891 63.5981 83.3993 60.5883C83.3999 60.5881 83.4005 60.5878 83.4011 60.5876L83.4013 60.5875L83.4027 60.5869L83.4028 60.5869L83.4518 60.567C83.4519 60.567 83.4521 60.5669 83.4522 60.5669C83.724 60.4567 84.0139 60.382 84.3146 60.3444L84.3147 60.3444L84.3707 60.3374L84.3708 60.3374C107.881 57.3986 120.895 54.1515 141.827 43.6399C141.827 43.6397 141.828 43.6396 141.828 43.6394L141.83 43.6386L141.83 43.6385C142.189 43.4579 142.537 43.2408 142.851 43.0087C151.169 36.8591 157.557 34.4403 163.937 34.7025C170.392 34.9677 177.113 37.9795 186.106 43.3725L186.166 43.4082L186.229 43.4382C211.261 55.4583 225.191 59.0562 249.257 60.4098L249.257 60.4098L249.292 60.4118C249.477 60.4222 249.652 60.4457 249.816 60.4824C249.816 60.4825 249.817 60.4825 249.817 60.4826L249.848 60.4896L249.849 60.4898L249.851 60.4903L249.852 60.4904L249.853 60.4907C253.389 61.288 255.94 62.4422 257.808 63.8735C259.66 65.2934 260.907 67.0385 261.763 69.1362C263.523 73.449 263.614 79.1429 263.702 86.464L263.702 86.5063C263.708 86.9548 263.713 87.4087 263.719 87.8674C261.178 137.183 255.219 170.273 243.98 196.772C232.75 223.251 216.196 243.27 192.231 266.37L192.217 266.385L192.202 266.399C180.27 278.548 171.22 283.821 162.701 283.637C154.181 283.453 145.635 277.805 134.724 266.472C110.29 234.508 92.7253 209.261 81.2274 182.263C69.7372 155.283 64.274 126.472 64.2028 87.3668Z" stroke="white" stroke-width="3"/>
<path d="M57.4725 72.6409C54.9021 71.9239 19.4715 80.2386 39.4077 122.082C59.3439 163.925 133.478 208.922 193.91 226.193C254.342 243.463 304.905 219.621 266.17 165.342" stroke="white" stroke-width="3"/>
<path d="M61.7515 165.343C59.5847 166.9 28.0413 217.487 73.1609 228.095C118.281 238.702 211.824 199.831 254.285 165.343C296.746 130.855 326.248 77.7951 270.924 71.6902" stroke="white" stroke-width="3"/>
<path d="M61.3252 197.194H68.833C69.3853 197.194 69.833 196.746 69.833 196.194V188.686C69.833 188.134 70.2808 187.686 70.833 187.686H73.587C74.1393 187.686 74.587 188.134 74.587 188.686V196.194C74.587 196.746 75.0347 197.194 75.587 197.194H82.144C82.6963 197.194 83.144 197.642 83.144 198.194V200.948C83.144 201.5 82.6963 201.948 82.144 201.948H75.587C75.0347 201.948 74.587 202.396 74.587 202.948V210.931C74.587 211.483 74.1393 211.931 73.587 211.931H70.833C70.2808 211.931 69.833 211.483 69.833 210.931V202.948C69.833 202.396 69.3853 201.948 68.833 201.948H61.3252C60.7729 201.948 60.3252 201.5 60.3252 200.948V198.194C60.3252 197.642 60.7729 197.194 61.3252 197.194Z" fill="url(#paint1_linear_9_191)"/>
<path d="M212.975 248.695H217.314C217.866 248.695 218.314 248.247 218.314 247.695V243.356C218.314 242.804 218.761 242.356 219.314 242.356H220.483C221.035 242.356 221.483 242.804 221.483 243.356V247.695C221.483 248.247 221.931 248.695 222.483 248.695H226.188C226.74 248.695 227.188 249.142 227.188 249.695V250.864C227.188 251.416 226.74 251.864 226.188 251.864H222.483C221.931 251.864 221.483 252.312 221.483 252.864V257.52C221.483 258.072 221.035 258.52 220.483 258.52H219.314C218.761 258.52 218.314 258.072 218.314 257.52V252.864C218.314 252.312 217.866 251.864 217.314 251.864H212.975C212.423 251.864 211.975 251.416 211.975 250.864V249.695C211.975 249.142 212.423 248.695 212.975 248.695Z" fill="url(#paint2_linear_9_191)"/>
<path d="M221.532 45.6228H226.267C226.819 45.6228 227.267 45.1751 227.267 44.6228V39.8881C227.267 39.3358 227.715 38.8881 228.267 38.8881H229.634C230.187 38.8881 230.634 39.3358 230.634 39.8881V44.6228C230.634 45.1751 231.082 45.6228 231.634 45.6228H235.696C236.248 45.6228 236.696 46.0705 236.696 46.6228V47.9902C236.696 48.5424 236.248 48.9902 235.696 48.9902H231.634C231.082 48.9902 230.634 49.4379 230.634 49.9902V55.0616C230.634 55.6139 230.187 56.0616 229.634 56.0616H228.267C227.715 56.0616 227.267 55.6139 227.267 55.0616V49.9902C227.267 49.4379 226.819 48.9902 226.267 48.9902H221.532C220.98 48.9902 220.532 48.5424 220.532 47.9902V46.6228C220.532 46.0705 220.98 45.6228 221.532 45.6228Z" fill="url(#paint3_linear_9_191)"/>
<path d="M67.5049 52.9913H71.0511C71.6034 52.9913 72.0511 52.5436 72.0511 51.9913V48.4451C72.0511 47.8928 72.4988 47.4451 73.0511 47.4451H73.8243C74.3765 47.4451 74.8243 47.8928 74.8243 48.4451V51.9913C74.8243 52.5436 75.272 52.9913 75.8243 52.9913H78.8159C79.3682 52.9913 79.8159 53.439 79.8159 53.9913V54.7644C79.8159 55.3167 79.3682 55.7644 78.8159 55.7644H75.8243C75.272 55.7644 74.8243 56.2122 74.8243 56.7644V60.588C74.8243 61.1403 74.3765 61.588 73.8243 61.588H73.0511C72.4988 61.588 72.0511 61.1403 72.0511 60.588V56.7644C72.0511 56.2122 71.6034 55.7644 71.0511 55.7644H67.5049C66.9526 55.7644 66.5049 55.3167 66.5049 54.7644V53.9913C66.5049 53.439 66.9526 52.9913 67.5049 52.9913Z" fill="url(#paint4_linear_9_191)"/>
<ellipse cx="164.4" cy="275.4" rx="163.8" ry="60.6" fill="url(#paint5_radial_9_191)" fill-opacity="0.5"/>
<defs>
<linearGradient id="paint0_linear_9_191" x1="225.762" y1="60.7561" x2="127.355" y2="234.274" gradientUnits="userSpaceOnUse">
<stop offset="0.015" stop-color="#C2451F"/>
<stop offset="0.535" stop-color="#E67E21"/>
<stop offset="1" stop-color="#F1B637"/>
</linearGradient>
<linearGradient id="paint1_linear_9_191" x1="71.7346" y1="187.686" x2="71.7346" y2="211.931" gradientUnits="userSpaceOnUse">
<stop stop-color="#F1B637"/>
<stop offset="1" stop-color="#D36020"/>
</linearGradient>
<linearGradient id="paint2_linear_9_191" x1="219.581" y1="242.356" x2="219.581" y2="258.52" gradientUnits="userSpaceOnUse">
<stop stop-color="#F1B637"/>
<stop offset="1" stop-color="#D36020"/>
</linearGradient>
<linearGradient id="paint3_linear_9_191" x1="228.614" y1="38.8881" x2="228.614" y2="56.0616" gradientUnits="userSpaceOnUse">
<stop stop-color="#F1B637"/>
<stop offset="1" stop-color="#D36020"/>
</linearGradient>
<linearGradient id="paint4_linear_9_191" x1="73.1604" y1="47.4451" x2="73.1604" y2="61.588" gradientUnits="userSpaceOnUse">
<stop stop-color="#F1B637"/>
<stop offset="1" stop-color="#D36020"/>
</linearGradient>
<radialGradient id="paint5_radial_9_191" cx="0" cy="0" r="1" gradientUnits="userSpaceOnUse" gradientTransform="translate(164.4 275.4) rotate(90) scale(60.6 163.8)">
<stop stop-color="#E0755D"/>
<stop offset="1" stop-color="#3B3BD3" stop-opacity="0"/>
</radialGradient>
</defs>
</svg>
