<svg width="258" height="212" viewBox="0 0 258 212" fill="none" xmlns="http://www.w3.org/2000/svg">
<path d="M227.062 20.2663L233.787 0L240.244 20.2663L227.062 33.682L209.306 26.2605L227.062 20.2663Z" fill="#F4CD41"/>
<path d="M240.244 33.682L233.518 53.9482L227.062 33.682L240.244 20.2662L258 27.6877L240.244 33.682Z" fill="#F3A21F"/>
<path d="M17.6579 127.021L24.3465 106.755L30.7675 127.021L17.6579 140.437L0 133.015L17.6579 127.021Z" fill="#F4CD41"/>
<path d="M30.7674 140.437L24.0788 160.703L17.6577 140.437L30.7674 127.021L48.4253 134.442L30.7674 140.437Z" fill="#F3A21F"/>
<path d="M226.36 185.853L231.617 170.198L236.556 185.893L226.323 196.23L212.609 190.435L226.36 185.853Z" fill="#F4CD41"/>
<path d="M236.519 196.27L231.262 211.925L226.323 196.229L236.556 185.893L250.269 191.688L236.519 196.27Z" fill="#F3A21F"/>
</svg>
