<svg width="1103" height="717" viewBox="0 0 1103 717" fill="none" xmlns="http://www.w3.org/2000/svg">
<path d="M1070.35 683.681L1077.33 664.094L1083.89 683.732L1070.31 696.665L1052.1 689.414L1070.35 683.681Z" fill="#2B4ED6"/>
<path d="M1083.84 696.715L1076.86 716.303L1070.31 696.665L1083.89 683.732L1102.09 690.983L1083.84 696.715Z" fill="#3C5BEA"/>
<path d="M203.906 243.777L208.792 230.066L213.381 243.812L203.872 252.865L191.129 247.79L203.906 243.777Z" fill="#2B4ED6"/>
<path d="M213.347 252.901L208.462 266.612L203.872 252.865L213.381 243.812L226.125 248.888L213.347 252.901Z" fill="#3C5BEA"/>
<path d="M1013.88 23.5359L1022.17 0L1030.12 23.5359L1013.88 39.116L992 30.4972L1013.88 23.5359Z" fill="#F4CD41"/>
<path d="M1030.12 39.1159L1021.83 62.6519L1013.88 39.1159L1030.12 23.5358L1052 32.1546L1030.12 39.1159Z" fill="#F3A21F"/>
<path d="M14.5856 494.691L20.1105 479L25.4144 494.691L14.5856 505.077L0 499.331L14.5856 494.691Z" fill="#F4CD41"/>
<path d="M25.4144 505.077L19.8895 520.768L14.5856 505.077L25.4144 494.69L40 500.436L25.4144 505.077Z" fill="#F3A21F"/>
<path d="M332.055 643.575L339.652 622L346.945 643.575L332.055 657.856L312 649.956L332.055 643.575Z" fill="#F4CD41"/>
<path d="M346.945 657.856L339.348 679.431L332.055 657.856L346.945 643.574L367 651.475L346.945 657.856Z" fill="#F3A21F"/>
</svg>
