<svg width="369" height="233" viewBox="0 0 369 233" fill="none" xmlns="http://www.w3.org/2000/svg">
<path d="M201.18 226.023C186.934 232.845 179.037 232.34 165.05 225.072L81.3814 176.433L7.22007 133.322C3.49381 131.314 2.32263 129.625 2.46615 125.24V111.454C2.46615 110.396 2.46615 109.45 2.4718 108.601C2.51951 101.438 2.96985 101.168 7.22007 98.618C8.68873 97.7368 25.1302 88.3709 47.1531 75.847C64.736 65.848 85.8767 53.8359 105.796 42.5215C141.685 22.1357 173.607 4.01482 173.607 4.01482C184.048 0.675706 189.56 1.28691 199.279 5.91639L330.012 81.5024L360.437 99.0933C365.483 102.064 367.238 103.976 367.092 108.126V126.666C366.805 129.685 365.801 131.268 361.863 133.797L359.486 135.161L217.344 216.746L201.18 226.023Z" fill="#2C2757"/>
<path d="M367.092 108.126V126.666C366.805 129.685 365.801 131.268 361.863 133.797L359.486 135.161M367.092 108.126C367.238 103.976 365.483 102.064 360.437 99.0933L330.012 81.5024M367.092 108.126C366.051 109.594 365.081 110.43 362.814 111.929C362.814 111.929 345.438 121.997 321.93 135.614M2.4718 108.601C2.51951 101.438 2.96985 101.168 7.22007 98.618C8.68873 97.7368 25.1302 88.3709 47.1531 75.847M2.4718 108.601C2.46615 109.45 2.46615 110.396 2.46615 111.454C2.46615 121.437 2.46615 125.24 2.46615 125.24C2.32263 129.625 3.49381 131.314 7.22007 133.322L81.3814 176.433M2.4718 108.601C4.12106 110.662 5.21246 111.502 7.22007 112.88C7.22007 112.88 18.5352 119.432 35.2683 129.098M47.1531 75.847L86.6107 98.618L60.9395 113.858M47.1531 75.847C64.736 65.848 85.8767 53.8359 105.796 42.5215M35.2683 129.098L60.9395 113.858M35.2683 129.098C70.8761 149.668 131.018 184.335 158.87 199.961M35.2683 129.098V139.026L81.3814 166.124V176.433M60.9395 113.858L101.348 137.188M125.117 150.911L101.348 137.188M101.348 137.188L127.494 121.912M158.87 199.961C167.033 204.54 172.422 207.484 173.608 207.958C180.738 210.811 192.623 210.335 196.902 207.958C198.27 207.198 215.738 197.099 238.867 183.713M158.87 199.961L189.296 181.812L155.067 161.845M158.87 199.961V210.335C158.87 210.335 168.378 216.04 171.231 217.466C174.083 218.892 186.681 220.668 196.902 217.466L217.344 206.532V216.746M155.067 161.845L199.279 136.174L168.854 118.109M155.067 161.845L136.527 172.779M238.867 183.713L201.656 161.845M238.867 183.713C252.164 176.018 267.331 167.236 282.386 158.517M238.867 183.713V193.696L282.386 168.501V158.517M282.386 158.517L261.555 146.157L300.537 123.338M282.386 158.517C296.169 150.535 309.858 142.607 321.93 135.614M300.537 123.338L280.095 110.503L301.964 97.6671M300.537 123.338L321.93 135.614M301.964 97.6671L271.398 80.0775M301.964 97.6671L330.012 81.5024M212.59 91.0116L251.572 68.6681L271.398 80.0775M271.398 80.0775L290.079 69.1435M330.012 81.5024L199.279 5.91639C189.56 1.28691 184.048 0.675706 173.607 4.01482C173.607 4.01482 141.685 22.1357 105.796 42.5215M321.93 135.614V145.206L359.486 123.814V135.161M359.486 135.161L217.344 216.746M217.344 216.746L201.18 226.023C186.934 232.845 179.037 232.34 165.05 225.072L81.3814 176.433M105.796 42.5215L119.888 50.6032L147.223 35.1529M174.558 19.7027L147.223 35.1529M147.223 35.1529L174.558 50.6032L112.282 84.8315L151.739 108.126L184.542 88.6346" stroke="#8E8EAF" stroke-width="3"/>
</svg>
